# xmcd CD database file
#
# Track frame offsets:
#	150
#	13213
#	35104
#	41924
#	59375
#	83587
#	110197
#	132496
#	168362
#
# Disc length: 2399 seconds
#
# Revision: 3
# Processed by: cddbd v1.5.2PL0 Copyright (c) Steve Scherf et al.
# Submitted via: CDex 1.51
#
DISCID=80095d09
DTITLE=Popol Vuh - Agape - Agape
DYEAR=1983
DGENRE=New Age
TTITLE0=Hand in Hand
TTITLE1=They danced, they laughed, as of old
TTITLE2=Love, Life, Death
TTITLE3=The Christ is near
TTITLE4=Love-Love
TTITLE5=Behold, the drover summonds
TTITLE6=Agape-Agape
TTITLE7=Why do I still sleep
TTITLE8=Circledance
EXTD=YEAR: 1983
EXTT0=
EXTT1=
EXTT2=
EXTT3=
EXTT4=
EXTT5=
EXTT6=
EXTT7=
EXTT8=
PLAYORDER=
